<mxfile host="app.diagrams.net" modified="2024-05-24T22:12:51.352Z" agent="Mozilla/5.0 (Windows NT 10.0; Win64; x64) AppleWebKit/537.36 (KHTML, like Gecko) Chrome/125.0.0.0 Safari/537.36" etag="fxBuVtj1c8mMaLh6dIk_" version="24.4.8" type="github">
  <diagram name="Página-1" id="yAi14hIUzp8uLe7d80Zq">
    <mxGraphModel dx="607" dy="323" grid="1" gridSize="10" guides="1" tooltips="1" connect="1" arrows="1" fold="1" page="1" pageScale="1" pageWidth="827" pageHeight="1169" math="0" shadow="0">
      <root>
        <mxCell id="0" />
        <mxCell id="1" parent="0" />
        <mxCell id="UeQMyzMhVy5237aLHG3m-4" style="edgeStyle=orthogonalEdgeStyle;rounded=0;orthogonalLoop=1;jettySize=auto;html=1;exitX=1;exitY=0.5;exitDx=0;exitDy=0;" edge="1" parent="1" source="UeQMyzMhVy5237aLHG3m-1" target="UeQMyzMhVy5237aLHG3m-3">
          <mxGeometry relative="1" as="geometry">
            <Array as="points">
              <mxPoint x="120" y="65" />
              <mxPoint x="120" y="65" />
            </Array>
          </mxGeometry>
        </mxCell>
        <mxCell id="UeQMyzMhVy5237aLHG3m-5" value="Upload" style="edgeLabel;html=1;align=center;verticalAlign=middle;resizable=0;points=[];" vertex="1" connectable="0" parent="UeQMyzMhVy5237aLHG3m-4">
          <mxGeometry x="-0.5825" y="2" relative="1" as="geometry">
            <mxPoint as="offset" />
          </mxGeometry>
        </mxCell>
        <mxCell id="UeQMyzMhVy5237aLHG3m-1" value="API" style="ellipse;whiteSpace=wrap;html=1;aspect=fixed;" vertex="1" parent="1">
          <mxGeometry x="40" y="40" width="50" height="50" as="geometry" />
        </mxCell>
        <mxCell id="UeQMyzMhVy5237aLHG3m-3" value="Validação de Dados" style="verticalLabelPosition=bottom;verticalAlign=top;html=1;shape=process;whiteSpace=wrap;rounded=1;size=0.14;arcSize=6;" vertex="1" parent="1">
          <mxGeometry x="220" y="35" width="80" height="60" as="geometry" />
        </mxCell>
        <mxCell id="UeQMyzMhVy5237aLHG3m-6" value="10mil de Registros" style="text;strokeColor=none;align=center;fillColor=none;html=1;verticalAlign=middle;whiteSpace=wrap;rounded=0;" vertex="1" parent="1">
          <mxGeometry x="120" y="70" width="60" height="30" as="geometry" />
        </mxCell>
        <mxCell id="UeQMyzMhVy5237aLHG3m-11" style="edgeStyle=orthogonalEdgeStyle;rounded=0;orthogonalLoop=1;jettySize=auto;html=1;exitX=0.5;exitY=1;exitDx=0;exitDy=0;exitPerimeter=0;entryX=0.5;entryY=0;entryDx=0;entryDy=0;" edge="1" parent="1" source="UeQMyzMhVy5237aLHG3m-7" target="UeQMyzMhVy5237aLHG3m-9">
          <mxGeometry relative="1" as="geometry" />
        </mxCell>
        <mxCell id="UeQMyzMhVy5237aLHG3m-20" style="edgeStyle=orthogonalEdgeStyle;rounded=0;orthogonalLoop=1;jettySize=auto;html=1;exitX=1;exitY=0.5;exitDx=0;exitDy=0;exitPerimeter=0;entryX=0;entryY=0.5;entryDx=0;entryDy=0;" edge="1" parent="1" source="UeQMyzMhVy5237aLHG3m-7" target="UeQMyzMhVy5237aLHG3m-19">
          <mxGeometry relative="1" as="geometry" />
        </mxCell>
        <mxCell id="UeQMyzMhVy5237aLHG3m-7" value="Banco de Dados" style="strokeWidth=2;html=1;shape=mxgraph.flowchart.database;whiteSpace=wrap;" vertex="1" parent="1">
          <mxGeometry x="414" y="22.5" width="66" height="85" as="geometry" />
        </mxCell>
        <mxCell id="UeQMyzMhVy5237aLHG3m-8" style="edgeStyle=orthogonalEdgeStyle;rounded=0;orthogonalLoop=1;jettySize=auto;html=1;entryX=0;entryY=0.5;entryDx=0;entryDy=0;entryPerimeter=0;" edge="1" parent="1" source="UeQMyzMhVy5237aLHG3m-3" target="UeQMyzMhVy5237aLHG3m-7">
          <mxGeometry relative="1" as="geometry" />
        </mxCell>
        <mxCell id="UeQMyzMhVy5237aLHG3m-18" style="edgeStyle=orthogonalEdgeStyle;rounded=0;orthogonalLoop=1;jettySize=auto;html=1;exitX=0.5;exitY=1;exitDx=0;exitDy=0;" edge="1" parent="1" source="UeQMyzMhVy5237aLHG3m-9" target="UeQMyzMhVy5237aLHG3m-12">
          <mxGeometry relative="1" as="geometry" />
        </mxCell>
        <mxCell id="UeQMyzMhVy5237aLHG3m-9" value="API" style="rounded=1;whiteSpace=wrap;html=1;" vertex="1" parent="1">
          <mxGeometry x="387" y="160" width="120" height="60" as="geometry" />
        </mxCell>
        <mxCell id="UeQMyzMhVy5237aLHG3m-15" style="edgeStyle=orthogonalEdgeStyle;rounded=0;orthogonalLoop=1;jettySize=auto;html=1;exitX=0.5;exitY=1;exitDx=0;exitDy=0;entryX=0.5;entryY=0;entryDx=0;entryDy=0;" edge="1" parent="1" source="UeQMyzMhVy5237aLHG3m-12" target="UeQMyzMhVy5237aLHG3m-14">
          <mxGeometry relative="1" as="geometry">
            <Array as="points">
              <mxPoint x="447" y="430" />
            </Array>
          </mxGeometry>
        </mxCell>
        <mxCell id="UeQMyzMhVy5237aLHG3m-16" value="Consulta&lt;div&gt;&lt;br&gt;&lt;/div&gt;" style="edgeLabel;html=1;align=center;verticalAlign=middle;resizable=0;points=[];" vertex="1" connectable="0" parent="UeQMyzMhVy5237aLHG3m-15">
          <mxGeometry x="-0.0092" relative="1" as="geometry">
            <mxPoint as="offset" />
          </mxGeometry>
        </mxCell>
        <mxCell id="UeQMyzMhVy5237aLHG3m-12" value="Validação de Dados" style="verticalLabelPosition=bottom;verticalAlign=top;html=1;shape=process;whiteSpace=wrap;rounded=1;size=0.14;arcSize=6;" vertex="1" parent="1">
          <mxGeometry x="397" y="280" width="100" height="60" as="geometry" />
        </mxCell>
        <mxCell id="UeQMyzMhVy5237aLHG3m-13" value="" style="shape=actor;whiteSpace=wrap;html=1;" vertex="1" parent="1">
          <mxGeometry x="447" y="500" width="40" height="60" as="geometry" />
        </mxCell>
        <mxCell id="UeQMyzMhVy5237aLHG3m-14" value="Cliente" style="whiteSpace=wrap;html=1;aspect=fixed;fillColor=none;align=left;" vertex="1" parent="1">
          <mxGeometry x="407" y="480" width="80" height="80" as="geometry" />
        </mxCell>
        <mxCell id="UeQMyzMhVy5237aLHG3m-17" value="&lt;font color=&quot;#0000cc&quot;&gt;Near Real Time&lt;/font&gt;" style="text;html=1;align=center;verticalAlign=middle;resizable=0;points=[];autosize=1;strokeColor=none;fillColor=none;" vertex="1" parent="1">
          <mxGeometry x="447" y="428" width="110" height="30" as="geometry" />
        </mxCell>
        <mxCell id="UeQMyzMhVy5237aLHG3m-19" value="Inserir Dados" style="rounded=0;whiteSpace=wrap;html=1;" vertex="1" parent="1">
          <mxGeometry x="540" y="35" width="80" height="60" as="geometry" />
        </mxCell>
        <mxCell id="UeQMyzMhVy5237aLHG3m-21" value="Qual é a frequencia que vou receber esses dados?" style="text;align=center;verticalAlign=middle;resizable=0;points=[];autosize=1;strokeColor=none;fillColor=none;" vertex="1" parent="1">
          <mxGeometry x="470" y="5" width="300" height="30" as="geometry" />
        </mxCell>
        <mxCell id="UeQMyzMhVy5237aLHG3m-22" value="16Horas" style="text;html=1;align=center;verticalAlign=middle;resizable=0;points=[];autosize=1;strokeColor=none;fillColor=none;fontColor=#0000FF;" vertex="1" parent="1">
          <mxGeometry x="545" y="95" width="70" height="30" as="geometry" />
        </mxCell>
        <mxCell id="UeQMyzMhVy5237aLHG3m-26" style="edgeStyle=orthogonalEdgeStyle;rounded=0;orthogonalLoop=1;jettySize=auto;html=1;exitX=0.5;exitY=1;exitDx=0;exitDy=0;exitPerimeter=0;entryX=0.5;entryY=0;entryDx=0;entryDy=0;" edge="1" parent="1" source="UeQMyzMhVy5237aLHG3m-23" target="UeQMyzMhVy5237aLHG3m-25">
          <mxGeometry relative="1" as="geometry" />
        </mxCell>
        <mxCell id="UeQMyzMhVy5237aLHG3m-23" value="Banco de Dados Histórico" style="strokeWidth=2;html=1;shape=mxgraph.flowchart.database;whiteSpace=wrap;align=center;verticalAlign=middle;horizontal=1;fontSize=11;" vertex="1" parent="1">
          <mxGeometry x="690" y="35" width="90" height="85" as="geometry" />
        </mxCell>
        <mxCell id="UeQMyzMhVy5237aLHG3m-24" style="edgeStyle=orthogonalEdgeStyle;rounded=0;orthogonalLoop=1;jettySize=auto;html=1;exitX=1;exitY=0.5;exitDx=0;exitDy=0;entryX=0;entryY=0.5;entryDx=0;entryDy=0;entryPerimeter=0;" edge="1" parent="1" source="UeQMyzMhVy5237aLHG3m-19" target="UeQMyzMhVy5237aLHG3m-23">
          <mxGeometry relative="1" as="geometry" />
        </mxCell>
        <mxCell id="UeQMyzMhVy5237aLHG3m-25" value="Processamento mensal 400 milhões de registros" style="rounded=0;whiteSpace=wrap;html=1;" vertex="1" parent="1">
          <mxGeometry x="675" y="230" width="120" height="60" as="geometry" />
        </mxCell>
        <mxCell id="UeQMyzMhVy5237aLHG3m-27" value="Qual será a frequencia que vou receber esetes dados?" style="text;html=1;align=center;verticalAlign=middle;resizable=0;points=[];autosize=1;strokeColor=none;fillColor=none;spacing=-2;spacingLeft=0;" vertex="1" parent="1">
          <mxGeometry x="580" y="200" width="310" height="20" as="geometry" />
        </mxCell>
        <mxCell id="UeQMyzMhVy5237aLHG3m-30" style="edgeStyle=orthogonalEdgeStyle;rounded=0;orthogonalLoop=1;jettySize=auto;html=1;entryX=1;entryY=0.5;entryDx=0;entryDy=0;exitX=0;exitY=0.5;exitDx=0;exitDy=0;" edge="1" parent="1" source="UeQMyzMhVy5237aLHG3m-25" target="UeQMyzMhVy5237aLHG3m-14">
          <mxGeometry relative="1" as="geometry" />
        </mxCell>
        <mxCell id="UeQMyzMhVy5237aLHG3m-29" value="1 Vez por mês" style="text;html=1;align=center;verticalAlign=middle;resizable=0;points=[];autosize=1;strokeColor=none;fillColor=none;fontColor=#0000CC;" vertex="1" parent="1">
          <mxGeometry x="685" y="290" width="100" height="30" as="geometry" />
        </mxCell>
      </root>
    </mxGraphModel>
  </diagram>
</mxfile>
